<svg width="20" height="20" viewBox="0 0 20 20" fill="none" xmlns="http://www.w3.org/2000/svg">
<circle cx="10" cy="10" r="10" fill="#2da1e9"/>
<path d="M10.3694 4.06617C10.3044 3.95574 10.2039 3.90247 10.0813 3.90247C9.94651 3.90247 9.8551 3.96093 9.79324 4.06617C7.32936 8.29153 6.09082 11.0279 6.09082 12.2947C6.09082 13.0132 6.26631 13.6785 6.6241 14.2865C6.98346 14.8972 7.47007 15.3766 8.08299 15.7301C8.69594 16.0835 9.36417 16.2602 10.0813 16.2602C10.7985 16.2602 11.4667 16.0835 12.0797 15.7301C12.6927 15.3767 13.1746 14.8946 13.5324 14.2865C13.8918 13.6758 14.0719 13.0132 14.0719 12.2947C14.0718 11.0279 12.8422 8.28634 10.3694 4.06617ZM12.9501 13.9513C12.6497 14.4567 12.2439 14.8504 11.7364 15.1454C11.2263 15.4416 10.676 15.5897 10.0813 15.5897C9.48057 15.5897 8.92412 15.4416 8.41399 15.1454C7.90659 14.8504 7.50447 14.458 7.20643 13.9513C6.90984 13.4472 6.76508 12.8924 6.76508 12.2947C6.76508 11.9595 6.87977 11.4787 7.10836 10.846C7.33957 10.2054 7.63995 9.51676 8.00336 8.78136C8.73726 7.29366 9.41937 6.03982 10.0813 4.91333C10.7433 6.03984 11.4204 7.29627 12.1533 8.78138C12.5178 9.51938 12.8178 10.2067 13.0482 10.846C13.2774 11.48 13.3976 11.9595 13.3976 12.2947C13.3976 12.8924 13.2505 13.4459 12.9501 13.9513Z" fill="white"/>
<path d="M11.3078 10.0343C11.17 10.1501 11.1486 10.3677 11.2715 10.5042C11.3001 10.5364 11.3972 10.6497 11.5741 10.9393C11.6635 11.0848 11.7352 11.2419 11.7982 11.4093C11.9228 11.7427 12.0421 12.1985 11.9615 12.6169C11.8423 13.2361 11.4125 13.7781 10.6358 14.2274C10.4742 14.3214 10.4186 14.5055 10.5147 14.669C10.582 14.7823 10.6721 14.8441 10.7993 14.8441C10.8537 14.8441 10.9082 14.8312 10.9688 14.8068C11.9313 14.2583 12.4798 13.5696 12.6215 12.7315C12.8551 11.3487 11.8215 10.1193 11.78 10.0703C11.6581 9.92613 11.4486 9.91453 11.3078 10.0343Z" fill="white"/>
</svg>
